/* XPM */
static char *disabled_clock[]={
"21 24 62 1",
". c None",
"a c #000000",
"# c #2a2e2e",
"W c #323d34",
"0 c #38353a",
"V c #383e3f",
"X c #3e3d45",
"G c #3f3e45",
"1 c #414048",
"4 c #424149",
"Z c #424347",
"5 c #433f46",
"Y c #44444b",
"3 c #45434a",
"7 c #46454d",
"2 c #48464e",
"6 c #4a4851",
"A c #595444",
"L c #5f5944",
"y c #625b44",
"q c #6a924f",
"H c #6f6743",
"O c #717e3f",
"F c #726943",
"t c #736943",
"v c #78944d",
"M c #7e7343",
"b c #800000",
"w c #828b46",
"e c #829b51",
"s c #857843",
"g c #859a50",
"K c #867943",
"x c #877a43",
"R c #888f48",
"z c #897c43",
"J c #898742",
"f c #89964d",
"l c #8a9149",
"h c #8a934b",
"E c #8c8943",
"T c #8e8742",
"k c #8f8f48",
"o c #908243",
"n c #918343",
"p c #928d46",
"D c #928e45",
"U c #958b43",
"r c #978843",
"B c #988843",
"i c #9a8a43",
"m c #9a8b43",
"N c #9a8c44",
"j c #9b8b43",
"I c #9b8c43",
"u c #9c8b43",
"C c #9c8c43",
"P c #9c8c44",
"Q c #9d8c44",
"S c #9d8d44",
"c c #c00000",
"d c #ff0000",
".....................",
"...#.............a...",
"...bbbbb.....bbbbb...",
"..ccccb.......ccccb..",
"..cccc..........ccb..",
".ccc.b.bcccccb..bccb.",
".c...bcccdddcccb...b.",
".....ccddefgddccb....",
"....ccdhiijjjkdcc....",
"...ccdlmjjjjnopdcc...",
"...cdqjrsijotjuvdc...",
"..bcdwjjxyzABCCDdcb..",
"..bcdEjjjFGHCCCIdcb..",
"..bcdJjjCKLMCCCNdcb..",
"...cdOCCCCCCPPQRdc...",
"...ccdmCCPPPQQSdcc...",
"....ccdjPPQSSSdccb...",
"....bbcdTSSSUdccb....",
".....bccdddddccbb....",
"....VbbcccccccbbW....",
"....XYbbbbbbbbbZ0....",
"....123.......425....",
".....6.........7.....",
"....................."};
