/* XPM */
static char *normal_clock[]={
"21 24 174 2",
"Qt c None",
".a c #000000",
".M c #004040",
".k c #224827",
".f c #234b28",
".u c #254d29",
".j c #26522c",
".e c #26522d",
".d c #27542e",
".i c #27552e",
".c c #295831",
".h c #295931",
".# c #2a2e2e",
".b c #2a5831",
".g c #2a5b32",
".t c #2b5b31",
".B c #2d5b31",
".s c #2e6235",
".p c #2e6236",
".P c #2f5e33",
".o c #31673a",
"aB c #323d34",
".A c #326638",
".r c #32683a",
".l c #326c3b",
".n c #346d3d",
".q c #356e3e",
".m c #35713f",
".O c #376c3b",
"aK c #38353a",
"aw c #383e3f",
".0 c #386d3c",
".N c #3b7641",
"an c #3b7842",
".Z c #3b7843",
".F c #3c6244",
".v c #3d8248",
".C c #3d8449",
"aC c #3e3d45",
".8 c #3e7c46",
"ar c #3e7d47",
".y c #3e7e48",
"#L c #3f3e45",
".L c #3f8048",
"af c #408249",
".G c #40824a",
".R c #40824b",
"aL c #414048",
".x c #41844c",
".w c #41864c",
".Q c #418c4d",
"aO c #424149",
"aJ c #424347",
"#G c #428249",
"aP c #433f46",
"a# c #43864c",
"aD c #44444b",
"#R c #44854c",
"ak c #448b4f",
"aN c #45434a",
"#0 c #45894e",
".D c #459152",
"aR c #46454d",
"#6 c #46703d",
"ao c #46713c",
"#P c #46894e",
"#I c #468a4e",
"#m c #478d50",
".H c #478e51",
"am c #478f51",
"as c #478f52",
"ac c #479152",
"aM c #48464e",
"#Y c #488d50",
".K c #489152",
".z c #496a51",
"#w c #499152",
".S c #499354",
"aQ c #4a4851",
".Y c #4a9455",
".I c #4a9555",
".E c #4a9557",
"#n c #4b9555",
".J c #4b9556",
"#d c #4b9655",
".X c #4b9656",
".1 c #4b9756",
"#H c #4b9957",
"aq c #4c763f",
"#l c #4c9756",
"#Z c #4c9757",
"#9 c #4c9856",
".T c #4c9857",
"#X c #4c9957",
"#u c #4c9958",
"a. c #4d9856",
"#5 c #4d9857",
"ad c #4d9957",
"at c #4d9958",
".W c #4d9a58",
"al c #4d9b58",
"#F c #4d9b59",
"ae c #4e9957",
"au c #4e9a58",
"#O c #4e9b58",
"#v c #4f7958",
"ax c #4f8f5b",
"av c #509959",
"ay c #50a25c",
"ap c #51733c",
"#e c #519b59",
"az c #51a05c",
"aG c #51a15c",
".U c #51a25d",
"aF c #51a35d",
"aA c #52995c",
"#Q c #529c5e",
"ag c #53723b",
".V c #53a55f",
"#k c #549c59",
"aH c #54a760",
"aE c #54a860",
"aI c #55a360",
".2 c #55a75f",
"#B c #595444",
".9 c #5aa45d",
"#c c #5da25b",
"aa c #5e753c",
"#U c #5f5944",
"#8 c #618f4d",
"#z c #625b44",
"aj c #658244",
"#o c #6a924f",
"#M c #6f6743",
".3 c #6fa75c",
"#1 c #717e3f",
"#K c #726943",
".7 c #72a459",
"#r c #736943",
"ab c #778a47",
"#t c #78944d",
"#V c #7e7343",
"#x c #828b46",
".4 c #829b51",
"#q c #857843",
".6 c #859a50",
"#T c #867943",
"#y c #877a43",
"#4 c #888f48",
"#A c #897c43",
"#S c #898742",
".5 c #89964d",
"#f c #8a9149",
"#. c #8a934b",
"#J c #8c8943",
"ah c #8e8742",
"#b c #8f8f48",
"#i c #908243",
"#h c #918343",
"#j c #928d46",
"#E c #928e45",
"ai c #958b43",
"#p c #978843",
"#C c #988843",
"## c #9a8a43",
"#g c #9a8b43",
"#W c #9a8c44",
"#a c #9b8b43",
"#N c #9b8c43",
"#s c #9c8b43",
"#D c #9c8c43",
"#2 c #9c8c44",
"#3 c #9d8c44",
"#7 c #9d8d44",
"QtQtQtQtQtQtQtQtQtQtQtQtQtQtQtQtQtQtQtQtQt",
"QtQtQt.#QtQtQtQtQtQtQtQtQtQtQtQtQt.aQtQtQt",
"QtQtQt.b.c.d.e.fQtQtQtQtQt.g.h.i.j.kQtQtQt",
"QtQt.l.m.n.o.pQtQtQtQtQtQtQt.q.r.s.t.uQtQt",
"QtQt.v.w.x.yQtQtQtQtQtQtQtQtQtQt.z.A.BQtQt",
"Qt.C.D.EQt.FQt.G.H.I.J.J.K.LQtQt.M.N.O.PQt",
"Qt.QQtQtQt.R.S.J.T.U.V.U.W.X.Y.ZQtQtQt.0Qt",
"QtQtQtQtQt.I.1.2.3.4.5.6.7.2.T.X.8QtQtQtQt",
"QtQtQtQt.I.X.9#.#####a#a#a#b#c.T#dQtQtQtQt",
"QtQtQt.S.X#e#f#g#a#a#a#a#h#i#j#k#l#mQtQtQt",
"QtQtQt.I#n#o#a#p#q###a#i#r#a#s#t#u.1QtQtQt",
"QtQt#v.X#w#x#a#a#y#z#A#B#C#D#D#E#F.T#GQtQt",
"QtQt#H.1#I#J#a#a#a#K#L#M#D#D#D#N#O.T#PQtQt",
"QtQt#Q#l#R#S#a#a#D#T#U#V#D#D#D#W#X.T#YQtQt",
"QtQtQt#Z#0#1#D#D#D#D#D#D#2#2#3#4.1#5QtQtQt",
"QtQtQt.T#n#6#g#D#D#2#2#2#3#3#7#8#9a.QtQtQt",
"QtQtQtQt.Ta#aa#a#2#2#3#7#7#7abacadaeQtQtQt",
"QtQtQtQt.W.Tafagah#7#7#7aiajak.T.WQtQtQtQt",
"QtQtQtQtQtal.TamanaoapaqarasatauavQtQtQtQt",
"QtQtQtQtawaxayadadad#ZatatatazaAaBQtQtQtQt",
"QtQtQtQtaCaD.z#QaEaFaG.UaHaI#vaJaKQtQtQtQt",
"QtQtQtQtaLaMaNQtQtQtQtQtQtQtaOaMaPQtQtQtQt",
"QtQtQtQtQtaQQtQtQtQtQtQtQtQtQtaRQtQtQtQtQt",
"QtQtQtQtQtQtQtQtQtQtQtQtQtQtQtQtQtQtQtQtQt"};
